<svg xmlns="http://www.w3.org/2000/svg" width="64" height="64" fill="#fff" stroke="#fff" viewBox="0 0 32 32"><path d="M16 5.425a17.345 17.345 0 0 0-6.473-2.249l-.092-.01a3.426 3.426 0 0 0-1.921.433l.017-.009A14.777 14.777 0 0 1 15.957.98h.061c3.157 0 6.086.976 8.501 2.642l-.05-.033a3.367 3.367 0 0 0-1.914-.424l.011-.001a17.624 17.624 0 0 0-6.648 2.297L16 5.416zM5.554 5.268a.47.47 0 0 0-.11.054l.002-.001A14.966 14.966 0 0 0 .98 16.005c0 3.584 1.256 6.875 3.353 9.457l-.022-.028c-1.754-3.261 4.48-12.455 7.61-16.159-3.53-3.521-5.277-4.062-6.015-4.062l-.032-.001a.903.903 0 0 0-.326.06l.006-.002zm14.529 4.007c3.129 3.706 9.367 12.908 7.605 16.161a14.922 14.922 0 0 0 3.332-9.43c0-4.181-1.709-7.962-4.467-10.684l-.002-.002a.394.394 0 0 0-.1-.052l-.003-.001a1.003 1.003 0 0 0-.336-.056h-.016.001c-.741 0-2.485.543-6.014 4.063zM6.114 27.306c2.627 2.306 6.093 3.714 9.888 3.714s7.261-1.407 9.905-3.728l-.017.015c2.349-2.393-5.402-10.901-9.89-14.29-4.483 3.39-12.24 11.897-9.886 14.29z"/></svg>